<svg aria-hidden="true" style="position: absolute; width: 0; height: 0; overflow: hidden;" version="1.1" xmlns="http://www.w3.org/2000/svg" xmlns:xlink="http://www.w3.org/1999/xlink">
<defs>
<symbol id="icon-close" viewBox="0 0 32 32">
<path fill="#7a7a7a" style="fill: var(--color1, #7a7a7a)" d="M4.94 4.020l-0.921 0.921 11.061 11.059-11.061 11.060 0.922 0.921 11.059-11.061 11.060 11.061 0.92-0.92-11.060-11.060 11.061-11.060-0.922-0.921-11.059 11.061z"></path>
</symbol>
<symbol id="icon-instagram" viewBox="0 0 32 32">
<path d="M10.24 1.92c-4.589 0-8.32 3.731-8.32 8.32v11.52c0 4.589 3.731 8.32 8.32 8.32h11.52c4.589 0 8.32-3.731 8.32-8.32v-11.52c0-4.589-3.731-8.32-8.32-8.32h-11.52zM23.68 7.040c0.704 0 1.28 0.576 1.28 1.28s-0.576 1.28-1.28 1.28-1.28-0.576-1.28-1.28 0.576-1.28 1.28-1.28zM16 8.96c3.885 0 7.040 3.155 7.040 7.040s-3.155 7.040-7.040 7.040-7.040-3.155-7.040-7.040 3.155-7.040 7.040-7.040zM16 10.24c-3.174 0-5.76 2.586-5.76 5.76s2.586 5.76 5.76 5.76 5.76-2.586 5.76-5.76-2.586-5.76-5.76-5.76z"></path>
</symbol>
<symbol id="icon-telegram" viewBox="0 0 32 32">
<path d="M16 1.28c8.13 0 14.72 6.59 14.72 14.72s-6.59 14.72-14.72 14.72-14.72-6.59-14.72-14.72 6.59-14.72 14.72-14.72zM21.078 22c0.271-0.831 1.539-9.11 1.696-10.741 0.047-0.494-0.109-0.822-0.415-0.969-0.37-0.178-0.918-0.089-1.553 0.14-0.872 0.314-12.015 5.046-12.659 5.32-0.611 0.259-1.188 0.542-1.188 0.952 0 0.288 0.171 0.45 0.642 0.618 0.49 0.175 1.725 0.549 2.454 0.75 0.702 0.194 1.501 0.026 1.949-0.253 0.475-0.295 5.955-3.962 6.349-4.284s0.707 0.090 0.385 0.412c-0.321 0.321-4.083 3.972-4.579 4.478-0.602 0.614-0.175 1.25 0.229 1.505 0.461 0.291 3.78 2.516 4.28 2.874s1.007 0.519 1.471 0.519c0.464 0 0.708-0.611 0.94-1.321z"></path>
</symbol>
<symbol id="icon-viber" viewBox="0 0 32 32">
<path d="M15.633 1.92c-0.872 0.005-1.747 0.058-2.63 0.165-1.687 0.207-3.36 0.552-4.964 1.29-2.553 1.172-4.363 3.163-4.888 6.055-0.201 1.006-0.38 2.272-0.495 3.557l-0.011 0.146c-0.197 2.417-0.074 4.842 0.611 7.225 0.54 1.877 1.535 3.565 3.277 4.659 0.737 0.463 1.71 0.688 2.218 0.923 0.143 0.068 0.177 0.108 0.185 0.118 0.008 0.008 0.028 0.025 0.025 0.175-0.017 1.53 0 4.49 0 4.49l0.003 0.637h1.142l0.186-0.18s2.902-2.793 3.952-3.942c0.19-0.205 0.288-0.32 0.307-0.333 0.018-0.013-0.013-0.020 0.183-0.025 1.377-0.028 2.752-0.080 4.127-0.155 1.812-0.1 3.66-0.273 5.437-1.015 1.548-0.648 2.84-1.705 3.622-3.29 0.8-1.626 1.228-3.348 1.388-5.13 0.265-2.968 0.173-5.94-0.648-8.87-0.483-1.717-1.453-3.17-2.94-4.195-1.78-1.226-3.788-1.685-5.753-1.978-1.005-0.161-2.2-0.275-3.413-0.316l-0.050-0.001c-0.29-0.008-0.58-0.013-0.872-0.010zM16.47 3.21c1.103 0.029 2.205 0.137 3.31 0.302 1.895 0.283 3.683 0.713 5.215 1.768 1.242 0.855 2.017 2.010 2.432 3.482 0.765 2.74 0.863 5.548 0.605 8.415-0.147 1.652-0.54 3.21-1.263 4.677-0.637 1.295-1.632 2.118-2.968 2.675-1.549 0.648-3.235 0.82-5.010 0.918-1.36 0.075-2.723 0.125-4.085 0.152-0.342 0.008-0.677 0.097-0.915 0.273-0.237 0.175-0.344 0.337-0.492 0.497-0.75 0.82-2.245 2.262-3.060 3.053-0.005-0.956-0.013-2.11 0-3.175 0.005-0.328-0.070-0.662-0.257-0.928s-0.445-0.425-0.692-0.54c-0.723-0.335-1.668-0.59-2.077-0.847-1.433-0.9-2.245-2.25-2.728-3.93-0.632-2.198-0.753-4.46-0.565-6.763 0.1-1.195 0.273-2.392 0.49-3.58 0.454-2.502 1.885-4.077 4.16-5.123 1.437-0.66 2.972-0.986 4.589-1.183 0.783-0.099 1.689-0.156 2.608-0.156 0.247 0 0.493 0.004 0.738 0.012l-0.036-0.001zM16.74 6.4c-0.527 0-1.040 0.060-1.537 0.17-0.342 0.080-0.56 0.422-0.483 0.767s0.422 0.56 0.768 0.483c0.374-0.089 0.803-0.14 1.244-0.14 0.003 0 0.005 0 0.007 0h-0c0.003 0 0.006 0 0.010 0 3.112 0 5.635 2.523 5.635 5.635 0 0.002 0 0.005 0 0.007v-0c0 0.433-0.047 0.852-0.14 1.258-0.010 0.042-0.016 0.091-0.016 0.141 0 0.303 0.211 0.557 0.494 0.623l0.004 0.001c0.042 0.010 0.090 0.015 0.14 0.015 0.304 0 0.559-0.212 0.624-0.496l0.001-0.004c0.113-0.495 0.173-1.007 0.173-1.538 0-3.814-3.108-6.922-6.925-6.922zM10.355 7.683c-0.018-0.001-0.039-0.002-0.061-0.002-0.094 0-0.185 0.011-0.272 0.031l0.008-0.002c-1.163 0.257-2.317 1.1-2.35 2.605 0.032 0.21 0.030 0.435 0.108 0.625 0.38 0.93 0.71 1.89 1.185 2.77 2.312 4.275 5.81 7.247 10.268 9.135 0.532 0.225 1.082 0.273 1.619 0.048 0.74-0.307 1.368-0.783 1.786-1.466 0.572-0.937 0.58-1.587-0.363-2.28-0.617-0.455-1.225-0.922-1.85-1.368-0.952-0.675-1.983-0.792-2.692 0.393-0.038 0.060-0.093 0.109-0.14 0.16-0.365 0.387-0.813 0.482-1.288 0.287-1.802-0.742-3.195-1.94-4.035-3.723-0.495-1.047-0.36-1.572 0.564-2.27 0.093-0.067 0.18-0.14 0.265-0.218 0.405-0.37 0.513-0.81 0.273-1.307-0.563-1.173-1.294-2.173-2.176-3.017l-0.004-0.004c-0.248-0.234-0.53-0.382-0.845-0.399zM16.73 8.32c-0.282 0-0.562 0.022-0.837 0.070-0.317 0.043-0.558 0.311-0.558 0.636 0 0.158 0.057 0.302 0.151 0.414l-0.001-0.001c0.153 0.177 0.393 0.26 0.623 0.21 0.2-0.032 0.41-0.050 0.623-0.050 2.079 0 3.75 1.67 3.75 3.75 0 0.212-0.017 0.422-0.050 0.622-0.050 0.23 0.032 0.47 0.21 0.623 0.111 0.094 0.255 0.151 0.413 0.151 0.325 0 0.594-0.242 0.636-0.555l0-0.003c0.048-0.275 0.070-0.555 0.070-0.838 0-2.77-2.26-5.030-5.030-5.030zM16.64 10.24c-0.002-0-0.005-0-0.008-0-0.235 0-0.441 0.126-0.553 0.315l-0.002 0.003c-0.054 0.093-0.086 0.204-0.086 0.323s0.032 0.23 0.088 0.326l-0.002-0.003c0.118 0.2 0.333 0.32 0.563 0.317 1.068 0 1.92 0.852 1.92 1.92-0.003 0.23 0.118 0.445 0.317 0.563 0.2 0.115 0.445 0.115 0.645 0 0.2-0.118 0.32-0.333 0.317-0.563 0-1.76-1.44-3.2-3.2-3.2z"></path>
</symbol>
<symbol id="icon-menu" viewBox="0 0 32 32">
<path fill="#7a7a7a" style="fill: var(--color1, #7a7a7a)" d="M2 6h28v6h-28zM2 14h28v6h-28zM2 22h28v6h-28z"></path>
</symbol>
<symbol id="icon-cross" viewBox="0 0 32 32">
<path fill="#7a7a7a" style="fill: var(--color1, #7a7a7a)" d="M31.708 25.708l-9.708-9.708 9.708-9.708c0.181-0.181 0.293-0.431 0.293-0.707s-0.112-0.526-0.293-0.707l-4.586-4.586c-0.181-0.181-0.431-0.293-0.707-0.293s-0.526 0.112-0.706 0.292v0l-9.708 9.708-9.708-9.708c-0.181-0.181-0.431-0.293-0.707-0.293s-0.527 0.112-0.707 0.294l-4.586 4.586c-0.181 0.181-0.293 0.431-0.293 0.707s0.112 0.526 0.293 0.707l9.708 9.708-9.708 9.708c-0.181 0.181-0.293 0.431-0.293 0.707s0.112 0.526 0.293 0.707v0l4.586 4.586c0.181 0.181 0.431 0.293 0.707 0.293s0.526-0.112 0.707-0.293l9.708-9.708 9.708 9.708c0.181 0.181 0.431 0.293 0.707 0.293s0.526-0.112 0.707-0.293l4.586-4.586c0.181-0.181 0.293-0.431 0.293-0.707s-0.112-0.526-0.293-0.707v0z"></path>
</symbol>
<symbol id="icon-facebook" viewBox="0 0 32 32">
<path d="M19 6h5v-6h-5c-3.86 0-7 3.14-7 7v3h-4v6h4v16h6v-16h5l1-6h-6v-3c0-0.542 0.458-1 1-1z"></path>
</symbol>
</defs>
</svg>
